<svg height="512" viewBox="0 0 512 512" width="512" xmlns="http://www.w3.org/2000/svg"><g id="_16-water" data-name="16-water"><g id="mono"><path d="m368 396h-96a12 12 0 0 1 -12-12v-72a12.013 12.013 0 0 0 -12-12h-232a12 12 0 0 1 0-24h232a36.04 36.04 0 0 1 36 36v60h72v-100a68.077 68.077 0 0 0 -68-68h-96a12 12 0 0 1 -12-12v-116h-40v116a12 12 0 0 1 -12 12h-112a12 12 0 0 1 0-24h100v-116a12 12 0 0 1 12-12h64a12 12 0 0 1 12 12v116h84a92.1 92.1 0 0 1 92 92v112a12 12 0 0 1 -12 12z" fill="#76ace7"/><path d="m240 4a60.12 60.12 0 0 0 -53.067 32h-53.866a60 60 0 1 0 0 56h53.866a60 60 0 1 0 53.067-88z" fill="#d1e3f7"/><path d="m384 396h-128a12 12 0 0 1 0-24h128a12 12 0 0 1 0 24z" fill="#a3c7ef"/><path d="m320 508a44.049 44.049 0 0 1 -44-44c0-10.312 6.119-22.814 18.708-38.22a219.644 219.644 0 0 1 17.038-18.49 12 12 0 0 1 16.508 0 219.644 219.644 0 0 1 17.038 18.49c12.589 15.406 18.708 27.908 18.708 38.22a44.049 44.049 0 0 1 -44 44zm0-74.833c-10.579 11.614-20 24.993-20 30.833a20 20 0 0 0 40 0c0-5.84-9.42-19.217-20-30.833z" fill="#d1e3f7"/><g fill="#1a74d7"><path d="m400 172a12 12 0 0 1 -12-12 36.04 36.04 0 0 0 -36-36 12 12 0 0 1 0-24 60.068 60.068 0 0 1 60 60 12 12 0 0 1 -12 12z"/><path d="m448 172a12 12 0 0 1 -12-12 84.1 84.1 0 0 0 -84-84 12 12 0 0 1 0-24 108.123 108.123 0 0 1 108 108 12 12 0 0 1 -12 12z"/><path d="m496 172a12 12 0 0 1 -12-12c0-72.785-59.215-132-132-132a12 12 0 0 1 0-24c86.019 0 156 69.981 156 156a12 12 0 0 1 -12 12z"/></g></g></g></svg>