<?xml version="1.0" encoding="iso-8859-1"?>
<!-- Generator: Adobe Illustrator 19.0.0, SVG Export Plug-In . SVG Version: 6.00 Build 0)  -->
<svg version="1.1" id="Capa_1" xmlns="http://www.w3.org/2000/svg" xmlns:xlink="http://www.w3.org/1999/xlink" x="0px" y="0px"
	 viewBox="0 0 512 512" style="enable-background:new 0 0 512 512;" xml:space="preserve">
<g>
	<g>
		<g>
			<rect x="265.143" y="237.682" width="18.286" height="36.571"/>
			<rect x="338.286" y="237.682" width="18.286" height="36.571"/>
			<rect x="228.571" y="237.682" width="18.286" height="36.571"/>
			<rect x="301.714" y="237.682" width="18.286" height="36.571"/>
			<path d="M244.453,123.89h0.037c5.746,4.654,13.729,5.39,20.229,1.864c6.5-3.526,10.236-10.619,9.467-17.973
				c-0.974-9.311-8.823-16.383-18.185-16.384c-0.651-0.003-1.301,0.031-1.947,0.101c-7.354,0.773-13.519,5.9-15.621,12.99
				S238.707,119.235,244.453,123.89z"/>
			<path d="M287.954,385.687c-1.829-3.465-4.078-6.848-6.299-10.267L256,335.886l-28.928,44.544c-2.06,2.874-3.844,5.935-5.33,9.143
				c-1.526,3.662-2.312,7.59-2.313,11.557c0.062,8.533,3.594,16.672,9.783,22.546c7.497,7.135,17.552,10.949,27.895,10.578
				c16.049-0.222,30.07-10.901,34.551-26.313c1.948-7.6,0.621-15.668-3.657-22.245L287.954,385.687z"/>
			<path d="M399.634,82.254c-16.376-19.181-35.091-36.234-55.707-50.761c18.515,31.295,18.515,70.19,0,101.486
				C364.54,118.461,383.255,101.421,399.634,82.254z"/>
			<path d="M363.721,141.152c-5.184,3.922-10.624,7.79-16.375,11.502c71.711,41.353,106.697,125.723,85.292,205.687
				C411.235,438.306,338.78,493.917,256,493.917S100.766,438.306,79.361,358.341s13.581-164.335,85.292-205.687
				c-5.751-3.712-11.191-7.579-16.375-11.502C72.701,189.037,37.87,281.111,62.829,367.029S166.529,512.029,256,511.968
				c89.471,0.061,168.212-59.02,193.171-144.939C474.13,281.111,439.299,189.037,363.721,141.152z"/>
			<path d="M256.594,164.539c3.438,0,6.839-0.256,10.222-0.576c41.451-4.832,72.709-39.946,72.709-81.678
				c0-41.731-31.259-76.845-72.709-81.678c-3.383-0.32-6.784-0.558-10.222-0.576c-44.534,1.242-79.991,37.702-79.991,82.254
				C176.603,126.837,212.06,163.297,256.594,164.539z M252.16,73.358l0.018-0.009c13.045-1.464,25.874,4.177,33.615,14.779
				c7.741,10.602,9.205,24.539,3.837,36.519c-5.368,11.979-16.744,20.163-29.808,21.443c-1.294,0.135-2.594,0.202-3.895,0.201h-0.11
				c-19.388-0.133-35.303-15.374-36.274-34.739S232.882,75.43,252.16,73.358z"/>
			<path d="M502.857,246.825H512v-9.143c0-5.049-4.093-9.143-9.143-9.143h-43.621c21.548,52.733,21.591,111.807,0.119,164.571
				h43.502c5.049,0,9.143-4.093,9.143-9.143v-9.143h-9.143c-5.049,0-9.143-4.093-9.143-9.143s4.093-9.143,9.143-9.143H512v-18.286
				h-9.143c-5.049,0-9.143-4.093-9.143-9.143s4.093-9.143,9.143-9.143H512v-18.286h-9.143c-5.049,0-9.143-4.093-9.143-9.143
				c0-5.049,4.093-9.143,9.143-9.143H512v-18.286h-9.143c-5.049,0-9.143-4.093-9.143-9.143
				C493.714,250.919,497.808,246.825,502.857,246.825z"/>
			<path d="M9.143,228.539c-5.049,0-9.143,4.093-9.143,9.143v9.143h9.143c5.049,0,9.143,4.093,9.143,9.143
				c0,5.049-4.093,9.143-9.143,9.143H0v18.286h9.143c5.049,0,9.143,4.093,9.143,9.143c0,5.049-4.093,9.143-9.143,9.143H0v18.286
				h9.143c5.049,0,9.143,4.093,9.143,9.143s-4.093,9.143-9.143,9.143H0v18.286h9.143c5.049,0,9.143,4.093,9.143,9.143
				s-4.093,9.143-9.143,9.143H0v9.143c0,5.049,4.093,9.143,9.143,9.143h43.502c-21.472-52.764-21.429-111.838,0.119-164.571H9.143z"
				/>
			<path d="M268.571,182.139c-3.757,0.441-7.536,0.67-11.319,0.686c-0.219,0-0.43,0-0.649,0s-0.402,0-0.603,0
				c-25.443-0.537-50.382-7.198-72.704-19.419c-68.648,33.794-104.948,110.443-87.6,184.965
				c17.349,74.522,83.77,127.257,160.285,127.257s142.936-52.735,160.285-127.257s-18.952-151.171-87.6-184.965
				C310.019,173.438,289.618,179.797,268.571,182.139z M182.857,383.968h-45.714c-5.049,0-9.143-4.093-9.143-9.143
				c0-5.049,4.093-9.143,9.143-9.143h45.714c5.049,0,9.143,4.093,9.143,9.143C192,379.875,187.907,383.968,182.857,383.968z
				 M182.857,347.397h-45.714c-5.049,0-9.143-4.093-9.143-9.143c0-5.049,4.093-9.143,9.143-9.143h45.714
				c5.049,0,9.143,4.093,9.143,9.143C192,343.303,187.907,347.397,182.857,347.397z M309.294,412.677
				c-6.591,23.213-27.577,39.393-51.703,39.863c-0.521,0-1.033,0-1.554,0c-14.734,0.068-28.919-5.582-39.57-15.762
				c-9.746-9.302-15.28-22.175-15.323-35.648c0-6.376,1.258-12.689,3.703-18.578c1.923-4.304,4.266-8.407,6.994-12.251
				l35.657-54.857c1.872-2.877,5.071-4.614,8.503-4.617c3.417-0.002,6.607,1.716,8.485,4.571l32.503,50.094
				c2.496,3.84,4.946,7.634,7.049,11.529C310.478,387.727,312.371,400.566,309.294,412.677z M374.857,383.968h-45.714
				c-5.049,0-9.143-4.093-9.143-9.143c0-5.049,4.093-9.143,9.143-9.143h45.714c5.049,0,9.143,4.093,9.143,9.143
				C384,379.875,379.907,383.968,374.857,383.968z M384,338.254c0,5.049-4.093,9.143-9.143,9.143h-45.714
				c-5.049,0-9.143-4.093-9.143-9.143c0-5.049,4.093-9.143,9.143-9.143h45.714C379.907,329.111,384,333.204,384,338.254z
				 M374.857,237.682v36.571c0,10.099-8.187,18.286-18.286,18.286H155.429c-10.099,0-18.286-8.187-18.286-18.286v-36.571
				c0-10.099,8.187-18.286,18.286-18.286h201.143C366.67,219.397,374.857,227.583,374.857,237.682z"/>
			<rect x="155.429" y="237.682" width="18.286" height="36.571"/>
			<rect x="192" y="237.682" width="18.286" height="36.571"/>
			<path d="M172.361,135.941c-20.894-32.739-20.894-74.626,0-107.365c-22.344,15.102-42.541,33.159-60.041,53.678
				C129.826,102.77,150.023,120.829,172.361,135.941z"/>
		</g>
	</g>
</g>
<g>
</g>
<g>
</g>
<g>
</g>
<g>
</g>
<g>
</g>
<g>
</g>
<g>
</g>
<g>
</g>
<g>
</g>
<g>
</g>
<g>
</g>
<g>
</g>
<g>
</g>
<g>
</g>
<g>
</g>
</svg>
