<svg id="Capa_1" enable-background="new 0 0 512 512" height="512" viewBox="0 0 512 512" width="512" xmlns="http://www.w3.org/2000/svg"><g><path d="m334.667 0h-157.334c-97.782 0-177.333 79.551-177.333 177.333v157.334c0 97.782 79.551 177.333 177.333 177.333h157.333c97.783 0 177.334-79.551 177.334-177.333v-157.334c0-97.782-79.551-177.333-177.333-177.333zm137.333 334.667c0 75.726-61.607 137.333-137.333 137.333h-157.334c-75.726 0-137.333-61.607-137.333-137.333v-157.334c0-75.726 61.607-137.333 137.333-137.333h157.333c75.727 0 137.334 61.607 137.334 137.333zm-38.667-78.667c0 97.782-79.551 177.333-177.333 177.333s-177.333-79.551-177.333-177.333c0-65.281 35.38-122.78 88.65-153.596 9.561-5.529 21.795-2.264 27.327 7.298 5.531 9.562 2.264 21.796-7.297 27.327-42.363 24.505-68.679 70.093-68.679 118.971 0 75.726 61.607 137.333 137.333 137.333s137.332-61.607 137.332-137.333c0-48.878-26.316-94.466-68.68-118.973-9.561-5.53-12.828-17.766-7.297-27.326 5.532-9.563 17.767-12.83 27.327-7.297 53.233 30.794 88.65 88.27 88.65 153.596zm-197.333 0v-157.333c0-11.046 8.954-20 20-20s20 8.954 20 20v157.333c0 11.046-8.954 20-20 20s-20-8.954-20-20z"/></g></svg>