<svg id="Capa_1" enable-background="new 0 0 512 512" height="512" viewBox="0 0 512 512" width="512" xmlns="http://www.w3.org/2000/svg"><path d="m243.167 280.975c-5.207-2.674-9.549-7.004-12.226-12.194-1.287-2.495-3.859-4.063-6.666-4.063h-76.684c-4.473 0-8.08 4.168-7.418 8.606 1.128 7.563 3.012 15.04 5.601 22.22 3.266 9.059 17.381 3.985 14.111-5.088-1.266-3.509-2.337-7.099-3.208-10.738h34.279l.027 54.779c-3.585-2.951-6.988-6.142-10.158-9.58-6.528-7.08-17.565 3.078-11.027 10.168 18.092 19.62 42.541 32.574 68.843 36.476 4.416.658 8.601-2.95 8.601-7.419v-76.494c0-2.814-1.573-5.389-4.075-6.673zm-10.925 74.085c-9.197-2.195-18.032-5.687-26.253-10.3l-.032-65.042h14.044c3.212 4.826 7.404 9.009 12.241 12.214z"/><path d="m320.99 122.724-.019-57.254c10.483-.06 18.995-8.602 18.995-19.1v-27.266c0-10.534-8.57-19.104-19.105-19.104h-6.861c-9.63 0-9.644 15 0 15h6.861c2.264 0 4.104 1.841 4.104 4.104v27.266c0 2.264-1.841 4.105-4.104 4.105h-129.722c-2.264 0-4.104-1.842-4.104-4.105v-27.266c0-2.264 1.841-4.104 4.104-4.104h78.861c9.63 0 9.644-15 0-15h-78.861c-10.534 0-19.104 8.57-19.104 19.104v27.266c0 10.442 8.422 18.941 18.827 19.091l.019 57.327c-49.374 24.121-83.458 74.767-83.458 133.212 0 58.509 34.158 109.203 83.62 133.292-.018.211-.032.423-.032.639l.019 56.598c-10.483.06-18.995 8.602-18.995 19.1v27.266c0 10.534 8.57 19.104 19.104 19.104h129.723c10.534 0 19.104-8.57 19.104-19.104v-27.265c0-10.442-8.422-18.941-18.827-19.091l-.019-57.327c49.375-24.121 83.458-74.767 83.458-133.212-.001-58.496-34.143-109.18-83.588-133.276zm-115.128-56.758h100.109l.016 50.446c-15.629-5.588-32.457-8.641-49.988-8.641-17.581 0-34.455 3.07-50.122 8.688zm119.104 399.664v27.266c0 2.264-1.841 4.104-4.104 4.104h-129.723c-2.264 0-4.104-1.841-4.104-4.104v-27.266c0-2.264 1.841-4.105 4.104-4.105h129.723c2.263-.001 4.104 1.841 4.104 4.105zm-18.828-20.643h-100.11l-.016-49.399c15.629 5.587 32.456 8.641 49.987 8.641 17.581 0 34.455-3.07 50.122-8.688zm-50.138-55.758c-73.654 0-133.577-59.767-133.577-133.229s59.923-133.229 133.577-133.229 133.577 59.766 133.577 133.229-59.923 133.229-133.577 133.229z"/><path d="m364.039 264.159-.527.035h-75.518c-2.852 0-5.456 1.617-6.722 4.173-2.813 5.684-7.525 10.309-13.267 13.021-2.624 1.239-4.297 3.88-4.297 6.781v76.118c0 4.416 4.13 8.043 8.528 7.429 51.335-7.108 92.322-47.82 99.675-99.004.66-4.588-3.233-8.824-7.872-8.553zm-85.33 28.453c5.477-3.398 10.155-8 13.641-13.418h13.717l.032 65.502c-8.465 4.78-17.666 8.396-27.389 10.606v-62.69zm42.385 41.756-.027-55.173h34.373c-5.142 21.946-17.477 41.204-34.346 55.173z"/><path d="m272.237 140.284c-4.417-.617-8.528 3.029-8.528 7.429v76.118c0 2.901 1.673 5.542 4.297 6.781 5.741 2.712 10.453 7.337 13.267 13.021 1.266 2.556 3.87 4.173 6.722 4.173h75.481c4.813.671 9.12-3.758 8.437-8.518-7.353-51.184-48.341-91.895-99.676-99.004zm6.472 79.104v-62.689c9.689 2.202 18.862 5.8 27.302 10.555l.033 65.552h-13.694c-3.486-5.418-8.164-10.02-13.641-13.418zm42.335 13.418-.028-55.238c16.91 13.974 29.273 33.257 34.423 55.238z"/><path d="m244.641 142.181c-1.651-1.425-3.839-2.06-5.999-1.74-50.979 7.563-91.536 48.418-98.625 99.354-.614 4.419 3.024 8.534 7.429 8.534h76.307c2.896 0 5.533-1.668 6.775-4.284 2.644-5.568 7.132-10.191 12.64-13.018 2.502-1.284 4.075-3.86 4.075-6.673v-76.494c-.001-2.182-.95-4.255-2.602-5.679zm-53.735 35.464.028 55.683h-34.492c5.065-22.124 17.458-41.59 34.464-55.683zm41.336 42.42c-5.199 3.438-9.628 7.985-12.922 13.263h-13.387l-.032-65.223c0-.263-.014-.522-.041-.778 8.17-4.624 17.031-8.156 26.382-10.388z"/><path d="m456.593 338.855-8.275 3.243c25.834-56.069 25.941-120.133.065-176.795-4.003-8.759-17.651-2.542-13.645 6.23 23.993 52.541 23.953 111.919.118 163.926l-2.941-7.342c-3.579-8.939-17.51-3.376-13.924 5.576l9.832 24.55c1.493 3.729 5.948 5.663 9.698 4.195l24.544-9.616c8.967-3.514 3.507-17.483-5.472-13.967z"/><path d="m84.177 153.757c-1.531-3.825-5.861-5.697-9.698-4.195l-24.544 9.616c-8.966 3.515-3.509 17.479 5.473 13.967l8.275-3.243c-25.834 56.069-25.941 120.133-.065 176.795 3.968 8.687 17.663 2.568 13.645-6.23-23.993-52.541-23.953-111.919-.118-163.926l2.941 7.342c3.564 8.9 17.515 3.39 13.924-5.576z"/><path d="m256 248.5c-9.652 0-9.668 15 0 15 9.652 0 9.668-15 0-15z"/></svg>