<svg id="icons" enable-background="new 0 0 64 64" height="512" viewBox="0 0 64 64" width="512" xmlns="http://www.w3.org/2000/svg"><path d="m1 32.5h3v18h-3z" fill="#fff"/><path d="m28 21.5h8v3h-8z" fill="#d7e9ff"/><path d="m36.98 21.5h-.98-8-1.5c-.83 0-1.5-.67-1.5-1.5s.67-1.5 1.5-1.5h3.5 4 2.47l8.61-6.68c.01-.011.02-.021.04-.03.04-.03.09-.06.13-.08.04-.03.08-.05.12-.07.05-.02.09-.04.14-.05.051-.02.101-.04.15-.05.04-.01.08-.01.12-.021.06-.01.12-.01.17-.01.02-.01.03-.01.05-.01h15.5c.83 0 1.5.67 1.5 1.5s-.67 1.5-1.5 1.5h-14.99l-8.61 6.691c-.011 0-.021.01-.03.01-.11.09-.24.16-.38.21-.021.01-.05.01-.08.02-.13.04-.28.07-.42.07-.01 0-.01 0-.01 0z" fill="#94c1ff"/><path d="m34 15.63v2.87h-4v-3h4z" fill="#d7e9ff"/><path d="m36 24.5h.98l2.99 4v4h-16.01v-4l3.02-4h1.02z" fill="#fff"/><path d="m13 49.5v1h-3v-18h3v1z" fill="#fff"/><path d="m46.99 35.5v12h-.01-3v-12h3z" fill="#94c1ff"/><path d="m4 32.5h3v18h-3z" fill="#fff"/><path d="m16.98 35.5h3v12h-3z" fill="#94c1ff"/><path d="m16.98 47.5v2h-3.98v-16h3.98v2z" fill="#d7e9ff"/><path d="m43.98 50.5h-24v-3-12-3h3.98 16.01 4.01v3 12z" fill="#d7e9ff"/><path d="m7 32.5h3v18h-3z" fill="#fff"/><path d="m50.99 46.5v3h-4v-2-12-2h4v3z" fill="#d7e9ff"/><path d="m50.99 36.5h12.01v10h-12.01z" fill="#fff"/><path d="m63 46.5v4c0 1.1-.9 2-2 2h-8.01c-1.101 0-2-.9-2-2v-1-3z" fill="#fff"/><path d="m63 32.5v4h-12.01v-3-1c0-1.1.899-2 2-2h8.01c1.1 0 2 .9 2 2z" fill="#fff"/><g fill="#116fff"><path d="m61 53.501h-8.012c-1.654 0-3-1.346-3-3v-18c0-1.654 1.346-3 3-3h8.012c1.654 0 3 1.346 3 3v18c0 1.654-1.346 3-3 3zm-8.012-22c-.552 0-1 .448-1 1v18c0 .552.448 1 1 1h8.012c.552 0 1-.448 1-1v-18c0-.552-.448-1-1-1z"/><path d="m63 37.501h-12.012c-.553 0-1-.447-1-1s.447-1 1-1h12.012c.553 0 1 .447 1 1s-.447 1-1 1z"/><path d="m63 47.501h-12.012c-.553 0-1-.447-1-1s.447-1 1-1h12.012c.553 0 1 .447 1 1s-.447 1-1 1z"/><path d="m50.99 50.5h-4.003c-.553 0-1-.447-1-1s.447-1 1-1h4.003c.553 0 1 .447 1 1s-.447 1-1 1z"/><path d="m50.99 34.502h-4.002c-.553 0-1-.447-1-1s.447-1 1-1h4.002c.553 0 1 .447 1 1s-.447 1-1 1z"/><path d="m46.988 50.5c-.553 0-1-.447-1-1v-15.998c0-.553.447-1 1-1s1 .447 1 1v15.998c0 .553-.447 1-1 1z"/><path d="m46.986 36.502h-3.001c-.553 0-1-.447-1-1s.447-1 1-1h3.001c.553 0 1 .447 1 1s-.447 1-1 1z"/><path d="m46.986 48.5h-3.001c-.553 0-1-.447-1-1s.447-1 1-1h3.001c.553 0 1 .447 1 1s-.447 1-1 1z"/><path d="m16.981 50.5h-4.003c-.553 0-1-.447-1-1s.447-1 1-1h4.003c.553 0 1 .447 1 1s-.447 1-1 1z"/><path d="m16.98 34.502h-4.002c-.553 0-1-.447-1-1s.447-1 1-1h4.002c.553 0 1 .447 1 1s-.447 1-1 1z"/><path d="m16.98 50.5c-.553 0-1-.447-1-1v-15.998c0-.553.447-1 1-1s1 .447 1 1v15.998c0 .553-.447 1-1 1z"/><path d="m19.983 36.502h-3.001c-.553 0-1-.447-1-1s.447-1 1-1h3.001c.553 0 1 .447 1 1s-.447 1-1 1z"/><path d="m19.983 48.5h-3.001c-.553 0-1-.447-1-1s.447-1 1-1h3.001c.553 0 1 .447 1 1s-.447 1-1 1z"/><path d="m43.984 51.501h-24c-.553 0-1-.447-1-1v-18c0-.553.447-1 1-1h24c.553 0 1 .447 1 1v18c0 .553-.447 1-1 1zm-23-2h22v-16h-22z"/><path d="m23.968 33.501c-.553 0-1-.447-1-1v-4c0-.553.447-1 1-1s1 .447 1 1v4c0 .553-.447 1-1 1z"/></g><path d="" style="fill:none;stroke:#116fff;stroke-width:2;stroke-linecap:round;stroke-linejoin:round;stroke-miterlimit:10"/><path d="" style="fill:none;stroke:#116fff;stroke-width:2;stroke-linecap:round;stroke-linejoin:round;stroke-miterlimit:10"/><path d="m39.971 33.501c-.553 0-1-.447-1-1v-4c0-.553.447-1 1-1s1 .447 1 1v4c0 .553-.448 1-1 1z" fill="#116fff"/><path d="m23.967 29.501c-.21 0-.421-.065-.602-.202-.44-.332-.528-.959-.195-1.4l3.017-3.998c.332-.441.959-.53 1.4-.195.44.332.528.959.195 1.4l-3.017 3.998c-.196.26-.494.397-.798.397z" fill="#116fff"/><path d="m39.972 29.501c-.305 0-.605-.139-.802-.401l-2.986-3.998c-.331-.442-.24-1.069.202-1.399.443-.332 1.069-.24 1.399.202l2.986 3.998c.331.442.24 1.069-.202 1.399-.179.135-.389.199-.597.199z" fill="#116fff"/><path d="m36.984 25.503h-10c-.553 0-1-.447-1-1s.447-1 1-1h10c.553 0 1 .447 1 1s-.447 1-1 1z" fill="#116fff"/><path d="m36.988 22.501h-10.489c-1.379 0-2.5-1.121-2.5-2.5s1.121-2.5 2.5-2.5h9.63l8.338-6.477c.03-.023.075-.054.113-.076.064-.045.118-.077.173-.109.069-.04.141-.08.213-.112.063-.029.137-.057.213-.082.105-.036.178-.06.252-.077.082-.018.147-.027.211-.036.087-.013.163-.021.238-.025.041-.004.087-.007.12-.007h15.5c1.379 0 2.5 1.121 2.5 2.5s-1.121 2.5-2.5 2.5h-14.644l-8.338 6.477c-.032.024-.069.05-.107.072-.144.105-.349.215-.569.297-.021.008-.092.03-.114.037-.276.082-.507.117-.732.119-.003-.001-.006-.001-.008-.001zm-10.489-3c-.275 0-.5.225-.5.5s.225.5.5.5h10.484c.036-.001.086-.01.147-.028.067-.022.109-.045.144-.071.023-.017.049-.034.075-.05l8.551-6.643c.175-.136.392-.21.613-.21h14.987c.275 0 .5-.225.5-.5s-.225-.5-.5-.5h-15.446c-.012.001-.022.002-.031.003l-.103.01c-.001 0-.099.026-.099.026l-.701-.749.609.793c-.02.015-.046.033-.073.051l-8.571 6.658c-.175.136-.392.21-.613.21z" fill="#116fff"/><path d="m28 25.503c-.553 0-1-.447-1-1v-3.002c0-.553.447-1 1-1s1 .447 1 1v3.002c0 .553-.447 1-1 1z" fill="#116fff"/><path d="m36 25.503c-.553 0-1-.447-1-1v-3.002c0-.553.447-1 1-1s1 .447 1 1v3.002c0 .553-.447 1-1 1z" fill="#116fff"/><path d="m30.001 19.501c-.553 0-1-.447-1-1v-3c0-.553.447-1 1-1s1 .447 1 1v3c0 .553-.447 1-1 1z" fill="#116fff"/><path d="m34 16.501h-3.999c-.553 0-1-.447-1-1s.447-1 1-1h3.999c.553 0 1 .447 1 1s-.447 1-1 1z" fill="#116fff"/><path d="m34 19.501c-.553 0-1-.447-1-1v-2.876c0-.553.447-1 1-1s1 .447 1 1v2.876c0 .553-.447 1-1 1z" fill="#116fff"/><path d="m12.999 51.499h-11.999c-.553 0-1-.447-1-1v-17.997c0-.553.447-1 1-1h11.999c.553 0 1 .447 1 1v17.997c0 .553-.447 1-1 1zm-10.999-2h9.999v-15.997h-9.999z" fill="#116fff"/><path d="m4.002 52.5c-.553 0-1-.447-1-1v-19.998c0-.553.447-1 1-1s1 .447 1 1v19.998c0 .553-.447 1-1 1z" fill="#116fff"/><path d="m7 52.5c-.553 0-1-.447-1-1v-19.998c0-.553.447-1 1-1s1 .447 1 1v19.998c0 .553-.447 1-1 1z" fill="#116fff"/><path d="m9.998 52.5c-.553 0-1-.447-1-1v-19.998c0-.553.447-1 1-1s1 .447 1 1v19.998c0 .553-.447 1-1 1z" fill="#116fff"/></svg>