<?xml version="1.0" encoding="UTF-8" standalone="no"?>
<svg
   xmlns:dc="http://purl.org/dc/elements/1.1/"
   xmlns:cc="http://creativecommons.org/ns#"
   xmlns:rdf="http://www.w3.org/1999/02/22-rdf-syntax-ns#"
   xmlns:svg="http://www.w3.org/2000/svg"
   xmlns="http://www.w3.org/2000/svg"
   xmlns:sodipodi="http://sodipodi.sourceforge.net/DTD/sodipodi-0.dtd"
   xmlns:inkscape="http://www.inkscape.org/namespaces/inkscape"
   id="icons"
   enable-background="new 0 0 64 64"
   height="512"
   viewBox="0 0 64 64"
   width="512"
   version="1.1"
   inkscape:version="0.91 r13725"
   sodipodi:docname="ventosa.svg">
  <metadata
     id="metadata77">
    <rdf:RDF>
      <cc:Work
         rdf:about="">
        <dc:format>image/svg+xml</dc:format>
        <dc:type
           rdf:resource="http://purl.org/dc/dcmitype/StillImage" />
      </cc:Work>
    </rdf:RDF>
  </metadata>
  <defs
     id="defs75" />
  <sodipodi:namedview
     pagecolor="#ffffff"
     bordercolor="#666666"
     borderopacity="1"
     objecttolerance="10"
     gridtolerance="10"
     guidetolerance="10"
     inkscape:pageopacity="0"
     inkscape:pageshadow="2"
     inkscape:window-width="696"
     inkscape:window-height="480"
     id="namedview73"
     showgrid="false"
     inkscape:zoom="0.4609375"
     inkscape:cx="278.77966"
     inkscape:cy="253.83051"
     inkscape:window-x="0"
     inkscape:window-y="0"
     inkscape:window-maximized="0"
     inkscape:current-layer="icons" />
  <path
     d="m 63,34.996 0,-4 c 0,-1.1 -0.9,-2 -2,-2 l -8,0 c -1.1,0 -1.99,0.889 -2,1.99 l 0,0.01 0,4 z"
     id="path3"
     inkscape:connector-curvature="0"
     style="fill:#ffffff" />
  <path
     d="m 51,44.996 12,0 0,-10 -12,0 z"
     id="path5"
     inkscape:connector-curvature="0"
     style="fill:#ffffff" />
  <path
     d="m 63,48.996 0,-4 -12,0 0,4 c 0,1.1 0.9,2 2,2 l 8,0 c 1.1,0 2,-0.9 2,-2 z"
     id="path7"
     inkscape:connector-curvature="0"
     style="fill:#ffffff" />
  <path
     d="m 51,30.996 0,-0.01 -10,0 -3,0 0,5.01 -3,0 0,10 0,3 16,0 0,-4 0,-10 z"
     id="path9"
     inkscape:connector-curvature="0"
     style="fill:#d7e9ff" />
  <path
     d="m 22,14.996 20,0 0,-3 -20,0 z"
     id="path11"
     inkscape:connector-curvature="0"
     style="fill:#ffffff" />
  <path
     d="m 22,17.996 20,0 0,-3 -20,0 z"
     id="path13"
     inkscape:connector-curvature="0"
     style="fill:#ffffff" />
  <path
     d="m 42,20.996 0,-3 -20,0 0,3 1,0 18,0 z"
     id="path15"
     inkscape:connector-curvature="0"
     style="fill:#ffffff" />
  <path
     d="m 41,30.986 0,-9.99 -18,0 0,9.99 0,0.01 -10,0 0,18 22,0 0,-3 -6,0 0,-10 -3,0 0,-12 12,0 0,6.99 z"
     id="path17"
     inkscape:connector-curvature="0"
     style="fill:#d7e9ff" />
  <path
     d="m 38,30.986 0,-6.99 -12,0 0,12 3,0 0,-9.01 6,0 0,9.01 3,0 z"
     id="path19"
     inkscape:connector-curvature="0"
     style="fill:#5c9eff" />
  <path
     d="m 35,35.996 0,-9.01 -6,0 0,9.01 0,10 6,0 z"
     id="path21"
     inkscape:connector-curvature="0"
     style="fill:#94c1ff" />
  <path
     d="m 10.01,48.996 0,-18 -0.01,0 -3,0 0,18 3,0 z"
     id="path23"
     inkscape:connector-curvature="0"
     style="fill:#d7e9ff" />
  <path
     d="m 4,48.996 3,0 0,-18 -3,0 z"
     id="path25"
     inkscape:connector-curvature="0"
     style="fill:#d7e9ff" />
  <path
     d="m 1,48.996 3,0 0,-18 -3,0 z"
     id="path27"
     inkscape:connector-curvature="0"
     style="fill:#d7e9ff" />
  <path
     d="m 11.51,51.988 c -0.829,0 -1.5,-0.67 -1.5,-1.5 l 0,-20.996 c 0,-0.828 0.671,-1.5 1.5,-1.5 0.829,0 1.5,0.672 1.5,1.5 l 0,20.996 c 0,0.83 -0.671,1.5 -1.5,1.5 z"
     id="path29"
     inkscape:connector-curvature="0"
     style="fill:#ffffff" />
  <g
     id="g31"
     style="fill:#116fff"
     transform="matrix(1,0,0,-1,0,63.992)">
    <path
       d="m 61,35.994 -7.998,0 c -1.654,0 -3,-1.346 -3,-3 l 0,-18 c 0,-1.654 1.346,-3 3,-3 l 7.998,0 c 1.654,0 3,1.346 3,3 l 0,18 c 0,1.654 -1.346,3 -3,3 z m -7.998,-22 c -0.552,0 -1,0.448 -1,1 l 0,18 c 0,0.552 0.448,1 1,1 l 7.998,0 c 0.552,0 1,-0.448 1,-1 l 0,-18 c 0,-0.552 -0.448,-1 -1,-1 z"
       id="path33"
       inkscape:connector-curvature="0" />
    <path
       d="m 10,15.994 -9,0 c -0.553,0 -1,-0.447 -1,-1 0,-0.553 0.447,-1 1,-1 l 9,0 c 0.553,0 1,0.447 1,1 0,0.553 -0.447,1 -1,1 z"
       id="path35"
       inkscape:connector-curvature="0" />
    <path
       d="m 10,33.994 -9,0 c -0.553,0 -1,-0.447 -1,-1 0,-0.553 0.447,-1 1,-1 l 9,0 c 0.553,0 1,0.447 1,1 0,0.553 -0.447,1 -1,1 z"
       id="path37"
       inkscape:connector-curvature="0" />
    <path
       d="m 1,33.994 c -0.553,0 -1,-0.447 -1,-1 l 0,-18 c 0,-0.553 0.447,-1 1,-1 0.553,0 1,0.447 1,1 l 0,18 c 0,0.553 -0.447,1 -1,1 z"
       id="path39"
       inkscape:connector-curvature="0" />
    <path
       d="m 4.001,34.727 c -0.553,0 -1,-0.447 -1,-1 l 0,-19.733 c 0,-0.553 0.447,-1 1,-1 0.553,0 1,0.447 1,1 l 0,19.732 c 0,0.553 -0.447,1.001 -1,1.001 z"
       id="path41"
       inkscape:connector-curvature="0" />
    <path
       d="m 7.004,34.727 c -0.553,0 -1,-0.447 -1,-1 l 0,-19.733 c 0,-0.553 0.447,-1 1,-1 0.553,0 1,0.447 1,1 l 0,19.732 c 0,0.553 -0.447,1.001 -1,1.001 z"
       id="path43"
       inkscape:connector-curvature="0" />
    <path
       d="m 51.002,15.994 -38.002,0 c -0.553,0 -1,-0.447 -1,-1 0,-0.553 0.447,-1 1,-1 l 38.002,0 c 0.553,0 1,0.447 1,1 0,0.553 -0.447,1 -1,1 z"
       id="path45"
       inkscape:connector-curvature="0" />
    <path
       d="m 23,33.994 -10.003,0 c -0.553,0 -1,-0.447 -1,-1 0,-0.553 0.447,-1 1,-1 l 10.003,0 c 0.553,0 1,0.447 1,1 0,0.553 -0.447,1 -1,1 z"
       id="path47"
       inkscape:connector-curvature="0" />
    <path
       d="m 41,43.996 c -0.553,0 -1,-0.447 -1,-1 l 0,-9.988 c 0,-0.553 0.447,-1 1,-1 0.553,0 1,0.447 1,1 l 0,9.988 c 0,0.553 -0.447,1 -1,1 z"
       id="path49"
       inkscape:connector-curvature="0" />
    <path
       d="m 23,43.996 c -0.553,0 -1,-0.447 -1,-1 l 0,-9.988 c 0,-0.553 0.447,-1 1,-1 0.553,0 1,0.447 1,1 l 0,9.988 c 0,0.553 -0.447,1 -1,1 z"
       id="path51"
       inkscape:connector-curvature="0" />
    <path
       d="m 63,19.994 -11.998,0 c -0.553,0 -1,-0.447 -1,-1 0,-0.553 0.447,-1 1,-1 l 11.998,0 c 0.553,0 1,0.447 1,1 0,0.553 -0.447,1 -1,1 z"
       id="path53"
       inkscape:connector-curvature="0" />
    <path
       d="m 63,29.994 -11.998,0 c -0.553,0 -1,-0.447 -1,-1 0,-0.553 0.447,-1 1,-1 l 11.998,0 c 0.553,0 1,0.447 1,1 0,0.553 -0.447,1 -1,1 z"
       id="path55"
       inkscape:connector-curvature="0" />
    <path
       d="m 51.002,34.008 -10.002,0 c -0.553,0 -1,-0.447 -1,-1 0,-0.553 0.447,-1 1,-1 l 10.002,0 c 0.553,0 1,0.447 1,1 0,0.553 -0.447,1 -1,1 z"
       id="path57"
       inkscape:connector-curvature="0" />
    <path
       d="m 41.999,52.996 -19.998,0 c -0.553,0 -1,-0.447 -1,-1 l 0,-9.002 c 0,-0.553 0.447,-1 1,-1 l 19.998,0 c 0.553,0 1,0.447 1,1 l 0,9.002 c 0,0.553 -0.447,1 -1,1 z m -18.998,-2 17.998,0 0,-7.002 -17.998,0 z"
       id="path59"
       inkscape:connector-curvature="0" />
    <path
       d="m 42.999,46.994 -21.998,0 c -0.553,0 -1,-0.447 -1,-1 0,-0.553 0.447,-1 1,-1 l 21.998,0 c 0.553,0 1,0.447 1,1 0,0.553 -0.447,1 -1,1 z"
       id="path61"
       inkscape:connector-curvature="0" />
    <path
       d="m 42.999,49.994 -21.998,0 c -0.553,0 -1,-0.447 -1,-1 0,-0.553 0.447,-1 1,-1 l 21.998,0 c 0.553,0 1,0.447 1,1 0,0.553 -0.447,1 -1,1 z"
       id="path63"
       inkscape:connector-curvature="0" />
    <path
       d="m 38,40.994 -12,0 c -0.553,0 -1,-0.447 -1,-1 l 0,-12 c 0,-0.553 0.447,-1 1,-1 l 3.001,0 c 0.553,0 1,0.447 1,1 0,0.553 -0.447,1 -1,1 l -2.001,0 0,10 10,0 0,-10 -2,0 c -0.553,0 -1,-0.447 -1,-1 0,-0.553 0.447,-1 1,-1 l 3,0 c 0.553,0 1,0.447 1,1 l 0,12 c 0,0.553 -0.447,1 -1,1 z"
       id="path65"
       inkscape:connector-curvature="0" />
    <path
       d="m 34.999,38.002 -5.998,0 c -0.553,0 -1,-0.447 -1,-1 l 0,-19.008 c 0,-0.553 0.447,-1 1,-1 l 5.998,0 c 0.553,0 1,0.447 1,1 l 0,19.008 c 0,0.553 -0.447,1 -1,1 z m -4.998,-2 3.998,0 0,-17.008 -3.998,0 z"
       id="path67"
       inkscape:connector-curvature="0" />
    <path
       d="m 32.03,34.994 c -0.553,0 -1.005,-0.447 -1.005,-1 0,-0.553 0.442,-1 0.994,-1 l 0.011,0 c 0.552,0 1,0.447 1,1 0,0.553 -0.448,1 -1,1 z"
       id="path69"
       inkscape:connector-curvature="0" />
    <path
       d="m 11.5,36.992 c -1.379,0 -2.5,-1.121 -2.5,-2.5 L 9,13.496 c 0,-1.379 1.121,-2.5 2.5,-2.5 1.379,0 2.5,1.121 2.5,2.5 l 0,20.996 c 0,1.379 -1.121,2.5 -2.5,2.5 z m 0,-23.996 c -0.275,0 -0.5,0.225 -0.5,0.5 l 0,20.996 c 0,0.275 0.225,0.5 0.5,0.5 0.275,0 0.5,-0.225 0.5,-0.5 l 0,-20.996 c 0,-0.275 -0.225,-0.5 -0.5,-0.5 z"
       id="path71"
       inkscape:connector-curvature="0" />
  </g>
</svg>
